
<global>
amp_veltrack=0
ampeg_release=0.35
</global>

<group>
group_label=Group_0-64
lpc_hicc1=64
lpc_locc1=0

<region>
hikey=A#5
hivel=127
lokey=A5
loop_end=287316
loop_mode=loop_continuous
loop_start=59946
loop_xfade=27220
lovel=1
lpc=zMCDQQIJ38Gpgr9BxZhxwWKBXUG77E7BvU8tQVspv8AolIhALSMUwPdnE0CekNy+aCPFv9t0VUBUkHu/ycqQPxWTNr+bfvQ+0LijPwGvnL8wZPI/B/8xP7pIr79dB4y/
lpc_rms=-34.01
pitch_keycenter=A#5
sample=Piccolo_trill_semitone_PP_A#4.opus
</region>

<region>
hikey=A#6
hivel=127
lokey=A6
loop_end=287654
loop_mode=loop_continuous
loop_start=60016
loop_xfade=27252
lovel=1
lpc=cEIBQs3NoMH7HcFBHZ7ewLWJi0EgNok+uAGyQee4AcBQOXhB4YUxvMRVfEFVuRvA1REjwY2n6L8er7I//8z/wH0GzL167xvBqFrmwO4m6MAXNQDABLfZwKZ5TMAprNjA
lpc_rms=-27.79
pitch_keycenter=A#6
sample=Piccolo_trill_semitone_PP_A#5.opus
</region>

<region>
hikey=C6
hivel=127
lokey=B5
loop_end=286416
loop_mode=loop_continuous
loop_start=59758
loop_xfade=27134
lovel=1
lpc=dULdQb5GSsIl7E1CxuIhws10EUKnddfBWmepQW+NLcFT4AZBFRmMwHi780BZ2jvA386OQNq3779/e49ApjnGv4b3sUABQknAb4iZQH0yf78LdDS/m6pBvpjB7b9b6qFA
lpc_rms=-32.34
pitch_keycenter=C6
sample=Piccolo_trill_semitone_PP_C5.opus
</region>

<region>
hikey=C7
hivel=127
lokey=B6
loop_end=289075
loop_mode=loop_continuous
loop_start=60313
loop_xfade=27386
lovel=1
lpc=l9ImQkTQyMGZEPVBDFMuwTVm10Fgs4xAMua1QVXStUA+HoVB0fCHQYgv9z/AljPBDFgAQc+lL0F4Hm0/Z8pwQIT4hcCtUi5AUzf1PlYQMECntPfA6/7XQNPHFUDododA
lpc_rms=-24.06
pitch_keycenter=C7
sample=Piccolo_trill_semitone_PP_C6.opus
</region>

<region>
hikey=D6
hivel=127
lokey=C#6
loop_end=284834
loop_mode=loop_continuous
loop_start=59428
loop_xfade=26985
lovel=1
lpc=zF3xQX/dKcI69wxCGKqrwVYIeUFV+fXA3l1JQVxy78AIIwhBm2/2P3pgxEBKxGq/jruMQPHChz9w3rFAJfSSP7dPdUB6/pC+8eGoQHdMZMBOGo3AboNGQfbEqcD9FNhA
lpc_rms=-31.05
pitch_keycenter=D6
sample=Piccolo_trill_semitone_PP_D5.opus
</region>

<region>
hikey=D7
hivel=127
lokey=C#7
loop_end=288848
loop_mode=loop_continuous
loop_start=60265
loop_xfade=27365
lovel=1
lpc=08roQdTZlsGWML9BiRF5wMU3hkGpUiFBp18+QQFz/EAqe6hBJ2R3vdrAFsAydoxBhGfaQLVhykDOhRBBk5ttQLJMGkGbkM5AT/MYQBrIG0FXFKZAY5FZQO/XEkA/245A
lpc_rms=-24.58
pitch_keycenter=D7
sample=Piccolo_trill_semitone_PP_D6.opus
</region>

<region>
hivel=127
key=E5
loop_end=278201
loop_mode=loop_continuous
loop_start=58044
loop_xfade=26356
lovel=1
lpc=3xmYQeYVD8Kp3xNCdj71wb0qk0HfKPzAMJCHQO8jI8BlGY1AgqiZwMdGVkB1XA09aLHVP8ZXkr/Ft8A+UveKvoXRrD9bey/AVJH5P/g5kr/doAw/G1scQDoBxr1FTf8+
lpc_rms=-38.75
sample=Piccolo_trill_semitone_PP_E4.opus
</region>

<region>
hikey=E6
hivel=127
lokey=D#6
loop_end=286605
loop_mode=loop_continuous
loop_start=59797
loop_xfade=27152
lovel=1
lpc=TuN1QQV6psH06INB+cECwU2gEEFZi2vArR2VQCCmPMAXEQ5B0+hFwJ90hEBm08i/VKyfQBl2jT6ohGRANyT7v1ULNkDfx0jA8YIhQAgQPkD6B8+/qjKEP6SHPj9gcyW/
lpc_rms=-35.84
pitch_keycenter=E6
sample=Piccolo_trill_semitone_PP_E5.opus
</region>

<region>
hikey=E7
hivel=127
lokey=D#7
loop_end=289771
loop_mode=loop_continuous
loop_start=60458
loop_xfade=27452
lovel=1
lpc=UWevQcojAMH6nV5BYz0+QNJKQkEpBwNBT9BLQZtY30BIXZBAkcClwIVVHEG/wmQ/PSOLQHLbSz/vfgNADXn8vhpShUC47d8+euHoPwOpHUCfXwC++zmNPUo/sr5Hvqe/
lpc_rms=-26.51
pitch_keycenter=E7
sample=Piccolo_trill_semitone_PP_E6.opus
</region>

<region>
hikey=F#5
hivel=127
lokey=F5
loop_end=281055
loop_mode=loop_continuous
loop_start=58639
loop_xfade=26627
lovel=1
lpc=TP6qQXM9H8IGrTJC9aIfwn32C0ICRM7B2JirQY50gcH12jRBNdHNwMZwg0AhbzM/oFQVvyRxFkCB0AzAxfBeQFkEIsCGd4hAQZwNv1tUA0AjLPC/l+QbQHsMP8AjjYRA
lpc_rms=-34.17
pitch_keycenter=F#5
sample=Piccolo_trill_semitone_PP_F#4.opus
</region>

<region>
hikey=F#6
hivel=127
lokey=F6
loop_end=285937
loop_mode=loop_continuous
loop_start=59658
loop_xfade=27089
lovel=1
lpc=9hC0QfysxcENhK1B9gNVwYKnU0HRddq/ZzugQMrAEUBv+c5ADVKRPzGMoUD10T5A3XJlQBpOnkCwnqs//EgOwfWqCUHdWAdAyHiPP5zO6j/a2li/N/spP4JBlT/Co9i/
lpc_rms=-32.91
pitch_keycenter=F#6
sample=Piccolo_trill_semitone_PP_F#5.opus
</region>

<region>
hikey=F#7
hivel=127
lokey=F7
loop_end=240207
loop_mode=loop_continuous
loop_start=50117
loop_xfade=22757
lovel=1
lpc=HlCQQU7sO8EXlYpBMj6VwBnDiEHymLA/9btsQSWn8b/eZ6xAJ4NPQSDcPT899kVBiLBdP6S5HEH/1LVAqiaKQAOlr0Azq85Az2DzQAX5WkD/HZtAJcWGQPPlsz7yse1A
lpc_rms=-12.88
pitch_keycenter=F#7
sample=Piccolo_trill_semitone_PP_F#6.opus
</region>

<region>
hikey=G#5
hivel=127
lokey=G5
loop_end=287716
loop_mode=loop_continuous
loop_start=60029
loop_xfade=27258
lovel=1
lpc=cWZnQbdrzMEN8MtBVGGTwdANl0E0KI7BqBqLQc4maMH7NVlBdTkSwdJd/ECaAJvAjjmNQFo877/Pxv0/b83zPe8ZRz+xDQi+MfBSQI5SQMA4pJRAKCtdwADKLUCbWbQ/
lpc_rms=-34.74
pitch_keycenter=G#5
sample=Piccolo_trill_semitone_PP_G#4.opus
</region>

<region>
hikey=G#6
hivel=127
lokey=G6
loop_end=288392
loop_mode=loop_continuous
loop_start=60170
loop_xfade=27322
lovel=1
lpc=7trPQZUhwcFls79BLrYlwdYIZkG+zFnAFxeBQTlxXEA2Se1Aa+N2QKUiHUFW6y9AWjxUQd039cDWIXtA+l65QB9Hxj+Z/H1AOY2YPzO6M0BUUt2//RFTwFmBXECQ0WG/
lpc_rms=-28.75
pitch_keycenter=G#6
sample=Piccolo_trill_semitone_PP_G#5.opus
</region>

<region>
hikey=G#7
hivel=127
lokey=G7
loop_end=188312
loop_mode=loop_continuous
loop_start=39289
loop_xfade=17840
lovel=1
lpc=Q/ygQdeCM8EWvZhBCaISvZdogEFXqvNAkZE3QQRRnb8P1JxBVucCQAE6gkERoXdAP9ZQQTNka0CioQNBWqwfQbHKrEDqcQJBcSl0QBwgm0DY35xAck7MP/AfNUA09QDA
lpc_rms=-11.98
pitch_keycenter=G#7
sample=Piccolo_trill_semitone_PP_G#6.opus
</region>
</group>

<group>
group_label=Group_65-127
lpc_hicc1=127
lpc_locc1=65

<region>
hikey=A#5
hivel=127
lokey=A5
loop_end=289059
loop_mode=loop_continuous
loop_start=60309
loop_xfade=27385
lovel=1
lpc=DQ9AQe6xrcHXErxBC3aRwcYoe0FOtk3BQGs6Qd1jDsFiCPhA6j28wB6xwEBEGzrABq/nP1SRgL79Ns4+W05MP+R7qL40AcE/jtoQvWd8gz+zmZ2/WFQkQFI1xb+A7ve+
lpc_rms=-26.89
pitch_keycenter=A#5
sample=Piccolo_trill_semitone_FF_A#4.opus
</region>

<region>
hikey=A#6
hivel=127
lokey=A6
loop_end=289546
loop_mode=loop_continuous
loop_start=60411
loop_xfade=27431
lovel=1
lpc=1HyvQZAgb8EyXq5BGFMpwSxCqkHjbM/ATzzUQWg/w8DfYJxB2KIDv6M8lEH1jJQ/4GKkwNKSSUF5rJ3A3p4sQSB5z8Cu+QlBmvlUwbSpHkHwyAzBPrq8QGIW/sC0zwRA
lpc_rms=-17.32
pitch_keycenter=A#6
sample=Piccolo_trill_semitone_FF_A#5.opus
</region>

<region>
hikey=C6
hivel=127
lokey=B5
loop_end=287959
loop_mode=loop_continuous
loop_start=60080
loop_xfade=27281
lovel=1
lpc=59xzQUgvxMGG9b5Bu4mSwTv6iUH3kk/BXBc/QcBx5MA74sVASrU1wCALrEBm1CvAQOILQHazVj/tOQA/xDkEQByPwL5c0uo/WPERvyS9KkDOwQu/HutavyhpNMC8Un5A
lpc_rms=-24.62
pitch_keycenter=C6
sample=Piccolo_trill_semitone_FF_C5.opus
</region>

<region>
hikey=C7
hivel=127
lokey=B6
loop_end=287444
loop_mode=loop_continuous
loop_start=59972
loop_xfade=27232
lovel=1
lpc=YjXhQaVVtMEY9NdB1dxbwf0bw0HfCOq+2bWNQdkiZkAx5FNBXF5XQa3B1UBw017BaTbHQYpMccDPAldBbnkDPxmClj8uiXtA1cq3vzG3AkEvOBbBKb8MQQl8/D+CqEu+
lpc_rms=-15.13
pitch_keycenter=C7
sample=Piccolo_trill_semitone_FF_C6.opus
</region>

<region>
hikey=D6
hivel=127
lokey=C#6
loop_end=292326
loop_mode=loop_continuous
loop_start=60991
loop_xfade=27694
lovel=1
lpc=UgOxQRyH6cGhr9VB+wmMwWsIVUFYGNjAoYIBQcJNm78yX5ZAfD1VQLKb/j+jnIE/a0ClQHNEoz9qID9ARoB/QIIvCL+omJtAL+wXv81BxL+tUry/PN75QAsKDsAW6JlA
lpc_rms=-25.41
pitch_keycenter=D6
sample=Piccolo_trill_semitone_FF_D5.opus
</region>

<region>
hikey=D7
hivel=127
lokey=C#7
loop_end=290254
loop_mode=loop_continuous
loop_start=60559
loop_xfade=27498
lovel=1
lpc=WG+wQbxDOcFllolBOjPTvjS+gEGUvddAxY9jQbcEFUGfdH9BISacQEKZQEAkB41BLoG4QDKePEF7DbtAcXQxQcuL4EAZIwZBE0biQD3sy0C9grNAmHNzQITmSEBI7HBA
lpc_rms=-21.21
pitch_keycenter=D7
sample=Piccolo_trill_semitone_FF_D6.opus
</region>

<region>
hivel=127
key=E5
loop_end=287607
loop_mode=loop_continuous
loop_start=60006
loop_xfade=27247
lovel=1
lpc=qkNkQfgXC8IO2h9CzVjvwQhvo0FfF0fBtLC7QMNVgcCJaLhAMrmrwA+dikA2IUDANq8XQCifeL2YhhHAtOJBQD4vHr/BbcS/TqTZP19oKD4tj66/RHKDQEl9oMA1/D1A
lpc_rms=-28.14
sample=Piccolo_trill_semitone_FF_E4.opus
</region>

<region>
hikey=E6
hivel=127
lokey=D#6
loop_end=291359
loop_mode=loop_continuous
loop_start=60789
loop_xfade=27603
lovel=1
lpc=TNAOQY/9M8F4Oi5B9Ke/wLwauEB0mIG/UkjQP1jJ4j9HQ50/c1kjQFsnJj+BddY/nKHMP2A3wj9c5rE/pKz4P6Wgaz4uqw/AUZ6WQOOJ/79BpTBAsNHfv7no4j9Ysge+
lpc_rms=-28.92
pitch_keycenter=E6
sample=Piccolo_trill_semitone_FF_E5.opus
</region>

<region>
hikey=E7
hivel=127
lokey=D#7
loop_end=291305
loop_mode=loop_continuous
loop_start=60778
loop_xfade=27598
lovel=1
lpc=z+a3QQDCjcGNh8pBUpPowHPVokE9MzxA9dssQWtYaUGDPLvApFmBQCUxikF2a7jAhSlUQTLslMAhtydBoSTEPurQ10DxCds/HuHmQOyE18BgSSBB8LjfwHYB00ABYYnA
lpc_rms=-17.53
pitch_keycenter=E7
sample=Piccolo_trill_semitone_FF_E6.opus
</region>

<region>
hikey=F#5
hivel=127
lokey=F5
loop_end=289334
loop_mode=loop_continuous
loop_start=60367
loop_xfade=27411
lovel=1
lpc=Dt1vQYRu8cGcHQRCgk/TwZcuvUGnhaPBi9GSQd/rWMHZFyFB7+XMwGXLlUADRI+/X7EIQGx+YL+TuBq/XMoqQDTLB8DE4HRAhawXwBkXA0Des56/JYtTQOKEh8CY1oxA
lpc_rms=-25.96
pitch_keycenter=F#5
sample=Piccolo_trill_semitone_FF_F#4.opus
</region>

<region>
hikey=F#6
hivel=127
lokey=F6
loop_end=291456
loop_mode=loop_continuous
loop_start=60809
loop_xfade=27612
lovel=1
lpc=hPFfQTnmjcFBNotB0TYOwYx1J0EBxaDAf2YMQacTML/iiatAAUqKP6gJmUBsvxVAqKVpQFyDkUBUbAe/y3PwvnansEDh+So/wdu3P3gejT9RasE/WInxPkwS2b6RqZI/
lpc_rms=-24.13
pitch_keycenter=F#6
sample=Piccolo_trill_semitone_FF_F#5.opus
</region>

<region>
hikey=F#7
hivel=127
lokey=F7
loop_end=240207
loop_mode=loop_continuous
loop_start=50117
loop_xfade=22757
lovel=1
lpc=HlCQQU7sO8EXlYpBMj6VwBnDiEHymLA/9btsQSWn8b/eZ6xAJ4NPQSDcPT899kVBiLBdP6S5HEH/1LVAqiaKQAOlr0Azq85Az2DzQAX5WkD/HZtAJcWGQPPlsz7yse1A
lpc_rms=-12.88
pitch_keycenter=F#7
sample=Piccolo_trill_semitone_FF_F#6.opus
</region>

<region>
hikey=G#5
hivel=127
lokey=G5
loop_end=286015
loop_mode=loop_continuous
loop_start=59674
loop_xfade=27096
lovel=1
lpc=m5goQTJSq8Ek4N5BteDKwc2kuUEeQ5rB4B+KQeNtSMGWmiVBNM7kwDj/1EAFKYHAbi1aQLXnqr8J6tk/Q2fWvsxrBkDAd8K/yasWQAstkr8jsC5AQRbevzPvAEB9shM/
lpc_rms=-25.74
pitch_keycenter=G#5
sample=Piccolo_trill_semitone_FF_G#4.opus
</region>

<region>
hikey=G#6
hivel=127
lokey=G6
loop_end=289322
loop_mode=loop_continuous
loop_start=60364
loop_xfade=27410
lovel=1
lpc=ueuNQXrbqMEqELVB2+hcwZpVfkG5JQrBp61eQSvEhD9lPBdAqwuRQD06jUC1iZZANW1xQFzSrsDwYshA9jsAQC6RgD4HoOI/NSzFP5uniT8+p3rAtkSjP+7ABECswxTA
lpc_rms=-19.22
pitch_keycenter=G#6
sample=Piccolo_trill_semitone_FF_G#5.opus
</region>

<region>
hikey=G#7
hivel=127
lokey=G7
loop_end=188312
loop_mode=loop_continuous
loop_start=39289
loop_xfade=17840
lovel=1
lpc=Q/ygQdeCM8EWvZhBCaISvZdogEFXqvNAkZE3QQRRnb8P1JxBVucCQAE6gkERoXdAP9ZQQTNka0CioQNBWqwfQbHKrEDqcQJBcSl0QBwgm0DY35xAck7MP/AfNUA09QDA
lpc_rms=-11.98
pitch_keycenter=G#7
sample=Piccolo_trill_semitone_FF_G#6.opus
</region>
</group>